#!OML:ASF F:\VICON\USERDATA\INSTALL\rory3\rory3.ASF
:FULLY-SPECIFIED
:DEGREES
64
root 0.4431638183733549 17.831791583372404 36.91382164519066 -4.400449711502803 1.470638681814604 -1.875856730648645
lfemur -12.465416673390845 -2.6020265633741726 -23.1055585854505
ltibia 21.798976231918445
lfoot -11.508786429678114 -2.3628895365942277
ltoes 4.211110270652922
rfemur -3.046233125909886 3.054711258724339 22.90539387364373
rtibia 53.91540007636207
rfoot -1.4591840240193257 -9.583942566348226
rtoes 7.887908812279189
lowerback 9.793920922577225 2.0588116667262524 1.881773323599825
upperback 0.6267885579651463 2.861603024435563 0.6984038257512678
thorax -4.682398438539476 1.4019772146175036 -0.8383634008805642
lowerneck -16.352049026990855 -3.2566068419978835 -2.479513344169717
upperneck 21.50739369580932 -4.273453224961235 1.9380333860205736
head 9.676452619782841 -1.989905937818893 0.43678537325097855
lclavicle -2.13734701165551e-15 2.4109786568303403e-17
lhumerus -33.94111884749351 5.262467493857403 83.74088711441027
lradius 27.456267689404505
lwrist 2.5996208365324014
lhand -27.582248875099886 24.55097852735389
lfingers 7.1250199999999975
lthumb -0.9824604226808261 54.54641829501941
rclavicle -2.13734701165551e-15 2.4109786568303403e-17
rhumerus -26.010348198485723 -15.525443835498425 -80.40026481491054
rradius 22.510651967882982
rwrist 8.788042740275328
rhand -17.675527262785206 20.47660384660598
rfingers 7.1250199999999975
rthumb 8.58339833489029 -8.483159692365478
65
root 0.40621999520044993 17.7670228575633 37.64502551847021 -4.460252855508148 1.5118544706176582 -0.3676027474725809
lfemur -10.904631093022036 -2.877148947696362 -24.37966562713507
ltibia 25.076834385141794
lfoot -13.930965073973223 0.9262851347856693
ltoes 5.176844139297984
rfemur -6.3148649592835415 2.1246061160324317 20.111422734064362
rtibia 58.23801044967097
rfoot -2.464877253793259 -9.09082702790537
rtoes 8.35639507636902
lowerback 10.013986388210357 1.9415149528736109 0.4260055186157099
upperback 0.7323420395220521 2.47024202417867 0.4624574723572836
thorax -4.76499516460946 1.2469349753930654 -0.2943329308109016
lowerneck -16.509160979155485 -3.2282133483079334 -2.332010545039647
upperneck 21.452030720628798 -4.243626848763896 2.035829500722877
head 9.68489434833861 -1.972185622719693 0.4690460113268996
lclavicle -1.919249188385973e-15 1.6960965821886372e-16
lhumerus -32.057483010661585 3.3702380662252445 84.19658305277363
lradius 26.923900824633073
lwrist 3.1693820569541193
lhand -27.948557977418925 25.33220678831982
lfingers 7.1250199999999975
lthumb -1.3362465661630656 55.332204816655796
rclavicle -1.919249188385973e-15 1.6960965821886372e-16
rhumerus -26.369200359784482 -17.201248312519255 -80.87038693158344
rradius 21.497446677416818
rwrist 9.464180884044206
rhand -17.678690820103633 20.326892248762398
rfingers 7.1250199999999975
rthumb 8.58032340212845 -8.687042736936153
66
root 0.380512667728956 17.713100992866966 38.41656728855882 -4.3589626193151165 1.354303657123527 0.9818762740820803
lfemur -9.166452121843262 -3.151646702476093 -25.493866501340005
ltibia 27.675610994691986
lfoot -16.009298407022328 4.546753185822719
ltoes 4.91580990089696
rfemur -9.996491267036614 1.4011849073892462 17.741176847396414
rtibia 61.91641846244072
rfoot -3.5050999191823466 -8.217649229471075
rtoes 8.67624959110257
lowerback 10.189423443239837 1.8398230715356418 -0.8777319951501277
upperback 0.8097931072552664 2.1105956255594087 0.25270040600027066
thorax -4.837229148605547 1.1048643877015936 0.19950485971764298
lowerneck -16.69514052685144 -3.1934165235592356 -2.203473942556427
upperneck 21.398449410815953 -4.200349143359759 2.1144253093495693
head 9.69937958751684 -1.9502345827179874 0.4992038693485883
lclavicle -1.7248351665963093e-15 2.993047009825054e-16
lhumerus -30.073159945160864 1.4811502808973687 84.50807481821646
lradius 26.31015193655337
lwrist 3.6225025548807808
lhand -28.190730451058936 25.853306219561897
lfingers 7.1250199999999975
lthumb -1.5701314155213004 55.856297403606554
rclavicle -1.7248351665963093e-15 2.993047009825054e-16
rhumerus -26.783413838312743 -18.784376223985998 -81.27695341768066
rradius 20.729366886223907
rwrist 9.722045518005407
rhand -17.658109135311484 20.238890299372933
rfingers 7.1250199999999975
rthumb 8.600180272715663 -8.824855039628908
67
root 0.3669907574808315 17.676105014832157 39.32857024565665 -4.125875665962195 1.0487918860429222 1.9546432543344028
lfemur -7.215057450503066 -3.3820539671842385 -26.218759115644644
ltibia 29.36782852799918
lfoot -17.44754388094555 7.847521164635928
ltoes 3.72447657514549
rfemur -13.829218670790468 0.8815461177115336 16.168802126017415
rtibia 64.72791457889502
rfoot -4.581013475563907 -7.245305807503719
rtoes 8.691539429979851
lowerback 10.316309968718487 1.7145608331581181 -1.8398731192077482
upperback 0.8499264787589443 1.7726337702983108 0.12805965725472213
thorax -4.901086797563489 0.9648994564994537 0.6321914374070416
lowerneck -16.87172667340892 -3.1457422215732493 -2.1140583124260104
upperneck 21.354126227247704 -4.133103856098799 2.156158844536724
head 9.713514361440414 -1.9207441012930846 0.526434008635588
lclavicle -1.500716942117057e-15 4.487975906971631e-16
lhumerus -28.121289020374743 -0.13861643502890553 84.6623356222654
lradius 25.803992577429202
lwrist 3.8577352130801987
lhand -28.19969590422246 25.91889497282087
lfingers 7.1250199999999975
lthumb -1.5787792010241102 55.92380738138278
rclavicle -1.500716942117057e-15 4.487975906971631e-16
rhumerus -27.234120134776997 -20.00051664573295 -81.59405971115272
rradius 20.33225332007334
rwrist 9.369318246045584
rhand -17.587045609726157 20.234511300690222
rfingers 7.1250199999999975
rthumb 8.668771056749888 -8.867092130788857
68
root 0.36152068123448194 17.659214936021687 40.35967893655189 -3.8256726330152224 0.6763529562710247 2.4081587322392575
lfemur -5.223410394449604 -3.567126466297747 -26.524756813952962
ltibia 29.995755761424174
lfoot -18.170836005695918 10.222339767275711
ltoes 1.8893843930352214
rfemur -17.6176332333841 0.4987124752388894 15.48012666347372
rtibia 66.37983231744825
rfoot -5.743171786890043 -6.458412586325343
rtoes 8.31986289621318
lowerback 10.383386175972847 1.5012181984253545 -2.4092982690859976
upperback 0.8454975773339066 1.3958750178583803 0.11595752218553734
thorax -4.959939288078974 0.7937751073654199 0.9989728431901772
lowerneck -17.008344782305446 -3.082926495988243 -2.064542895488188
upperneck 21.325135910978087 -4.040592918796916 2.1446009229905227
head 9.720854796846735 -1.883090032204645 0.5464299586525754
lclavicle -1.3899785572581524e-15 5.226514115998575e-16
lhumerus -26.382899911264076 -1.3259892014137098 84.64757400763474
lradius 25.569368130260017
lwrist 3.9635430899685518
lhand -27.9957161559941 25.47095169989541
lfingers 7.1250199999999975
lthumb -1.3817672404216939 55.4769544839757
rclavicle -1.3899785572581524e-15 5.226514115998575e-16
rhumerus -27.74451990002369 -20.73592425867964 -81.83465230675594
rradius 20.33410255308193
rwrist 8.37181303287676
rhand -17.454701796775907 20.28522531144685
rfingers 7.1250199999999975
rthumb 8.796527832371318 -8.840459527130765
69
root 0.35879204497595285 17.66073602109363 41.27372473550662 -3.5166640163001324 0.2910504549845476 2.3845168277265603
lfemur -3.313500957148049 -3.7142435597000505 -26.54133100064933
ltibia 29.557326899566597
lfoot -18.237232741583902 11.325452359957211
ltoes -0.5684670699785368
rfemur -21.270336035460637 0.21713541889991284 15.48337282240736
rtibia 66.59309356330475
rfoot -7.045964765456698 -6.0188101289897915
rtoes 7.622925207568654
lowerback 10.380217661348372 1.1543845497942302 -2.7011337902829737
upperback 0.7984262069971757 0.9138789908106892 0.20395294047291745
thorax -5.012745438845988 0.5604533345563093 1.320957794226764
lowerneck -17.102246071406416 -3.0063779594018243 -2.0454535639205402
upperneck 21.31466554404669 -3.926454808147803 2.062310075908049
head 9.72059597045076 -1.8385833549909332 0.5515786733096268
lclavicle -1.5769684456298283e-15 3.979119161694288e-16
lhumerus -24.970621162409824 -2.065988668113178 84.4631875495484
lradius 25.69850651591609
lwrist 4.166286992716524
lhand -27.7564676031327 24.626050589101514
lfingers 7.1250199999999975
lthumb -1.1506975259039152 54.63256549040393
rclavicle -1.5769684456298283e-15 3.979119161694288e-16
rhumerus -28.357746229633147 -21.05097728896093 -82.04122181327833
rradius 20.63214104723414
rwrist 6.876838873575406
rhand -17.249926601554126 20.351471808676344
rfingers 7.1250199999999975
rthumb 8.994214200181597 -8.781721540335223
70
root 0.3602463257385748 17.68218727446973 42.43244895953628 -3.2158895339236446 -0.03421262569885375 2.115279421231166
lfemur -1.120566936915809 -3.7697299164212215 -26.312062997795053
ltibia 28.441059082477572
lfoot -17.48130492084868 11.188379904349556
ltoes -3.4946198901377885
rfemur -24.399305485270567 0.11043154341122552 16.03363096778319
rtibia 65.55134833237467
rfoot -8.23922974558746 -5.791354190508634
rtoes 6.78787298814092
lowerback 10.317009904781301 0.7053875944847516 -2.786816849617442
upperback 0.722899955115239 0.35274089695287525 0.3872760147890575
thorax -5.044165937559419 0.28025059783782635 1.6898269982571896
lowerneck -17.151700022535074 -2.9122846327197753 -2.039004517162064
upperneck 21.350425902130016 -3.7854957221316843 1.9272939674930913
head 9.726798481826709 -1.7848193414167484 0.5474264083272685
lclavicle -1.7146250577119083e-15 3.0608005416302447e-16
lhumerus -23.774391136342217 -2.3105184447824483 84.1531556917944
lradius 26.27761303146022
lwrist 4.733455157717209
lhand -27.58214823315892 23.683890390976753
lfingers 7.1250199999999975
lthumb -0.9823422041205971 53.6907678868304
rclavicle -1.7146250577119083e-15 3.0608005416302447e-16
rhumerus -29.030977702160488 -20.96108170606165 -82.14861283929251
rradius 21.171132315993308
rwrist 5.202604396813392
rhand -16.971663495182135 20.460697448478193
rfingers 7.1250199999999975
rthumb 9.26284082710093 -8.676732400576716
